<svg width="32" height="32" viewBox="0 0 32 32" fill="none" xmlns="http://www.w3.org/2000/svg">
<path d="M11 7C11.7956 7 12.5587 7.31607 13.1213 7.87868C13.6839 8.44129 14 9.20435 14 10V22C14 22.7956 13.6839 23.5587 13.1213 24.1213C12.5587 24.6839 11.7956 25 11 25C10.2044 25 9.44129 24.6839 8.87868 24.1213C8.31607 23.5587 8 22.7956 8 22V10C8 9.20435 8.31607 8.44129 8.87868 7.87868C9.44129 7.31607 10.2044 7 11 7ZM21 7C21.7956 7 22.5587 7.31607 23.1213 7.87868C23.6839 8.44129 24 9.20435 24 10V22C24 22.7956 23.6839 23.5587 23.1213 24.1213C22.5587 24.6839 21.7956 25 21 25C20.2044 25 19.4413 24.6839 18.8787 24.1213C18.3161 23.5587 18 22.7956 18 22V10C18 9.20435 18.3161 8.44129 18.8787 7.87868C19.4413 7.31607 20.2044 7 21 7Z" fill="#EEEEEE"/>
</svg>
