<svg width="32" height="32" viewBox="0 0 32 32" fill="none" xmlns="http://www.w3.org/2000/svg">
<path fill-rule="evenodd" clip-rule="evenodd" d="M31 7C31.2652 7 31.5196 7.10536 31.7071 7.29289C31.8946 7.48043 32 7.73478 32 8V24C32 24.2652 31.8946 24.5196 31.7071 24.7071C31.5196 24.8946 31.2652 25 31 25C30.7348 25 30.4804 24.8946 30.2929 24.7071C30.1054 24.5196 30 24.2652 30 24V8C30 7.73478 30.1054 7.48043 30.2929 7.29289C30.4804 7.10536 30.7348 7 31 7Z" fill="#EEEEEE"/>
<path d="M15.192 17.3947L2.466 24.7787C1.386 25.4047 0 24.6447 0 23.3847V8.6167C0 7.3567 1.386 6.5967 2.466 7.2247L15.192 14.6087C15.4377 14.7489 15.6419 14.9517 15.7839 15.1963C15.926 15.441 16.0008 15.7188 16.0008 16.0017C16.0008 16.2846 15.926 16.5624 15.7839 16.8071C15.6419 17.0517 15.4377 17.2544 15.192 17.3947Z" fill="#EEEEEE"/>
<path d="M30.192 17.3947L17.466 24.7787C16.386 25.4047 15 24.6467 15 23.3847V8.6167C15 7.3567 16.386 6.5967 17.466 7.2247L30.192 14.6087C30.4377 14.7489 30.6419 14.9517 30.7839 15.1963C30.926 15.441 31.0008 15.7188 31.0008 16.0017C31.0008 16.2846 30.926 16.5624 30.7839 16.8071C30.6419 17.0517 30.4377 17.2544 30.192 17.3947Z" fill="#EEEEEE"/>
</svg>
