<svg width="32" height="32" viewBox="0 0 32 32" fill="none" xmlns="http://www.w3.org/2000/svg">
<g clip-path="url(#clip0)">
<path fill-rule="evenodd" clip-rule="evenodd" d="M1 7C0.734784 7 0.48043 7.10536 0.292893 7.29289C0.105357 7.48043 0 7.73478 0 8L0 24C0 24.2652 0.105357 24.5196 0.292893 24.7071C0.48043 24.8946 0.734784 25 1 25C1.26522 25 1.51957 24.8946 1.70711 24.7071C1.89464 24.5196 2 24.2652 2 24V8C2 7.73478 1.89464 7.48043 1.70711 7.29289C1.51957 7.10536 1.26522 7 1 7Z" fill="#EEEEEE"/>
<path d="M1.80781 17.3947L14.5338 24.7787C15.6138 25.4047 16.9998 24.6467 16.9998 23.3847V8.6167C16.9998 7.3567 15.6158 6.5967 14.5338 7.2247L1.80781 14.6087C1.56213 14.7489 1.35792 14.9517 1.21588 15.1963C1.07384 15.441 0.999023 15.7188 0.999023 16.0017C0.999023 16.2846 1.07384 16.5624 1.21588 16.8071C1.35792 17.0517 1.56213 17.2544 1.80781 17.3947Z" fill="#EEEEEE"/>
<path d="M16.8078 17.3947L29.5338 24.7787C30.6138 25.4047 31.9998 24.6467 31.9998 23.3847V8.6167C31.9998 7.3567 30.6138 6.5967 29.5338 7.2247L16.8078 14.6087C16.5621 14.7489 16.3579 14.9517 16.2159 15.1963C16.0738 15.441 15.999 15.7188 15.999 16.0017C15.999 16.2846 16.0738 16.5624 16.2159 16.8071C16.3579 17.0517 16.5621 17.2544 16.8078 17.3947Z" fill="#EEEEEE"/>
</g>
<defs>
<clipPath id="clip0">
<rect width="32" height="32" fill="white"/>
</clipPath>
</defs>
</svg>
